<svg width="503" height="238" viewBox="0 0 503 238" fill="none" xmlns="http://www.w3.org/2000/svg">
<path fill-rule="evenodd" clip-rule="evenodd" d="M22.5902 109.886V110.943H0.999996V109.886C3.91895 108.275 6.05784 106.538 7.41666 104.676C8.77549 102.813 9.85751 101.026 10.6627 99.3143L51.1255 1H53.2392L96.8725 96.7469C97.7784 98.7605 98.8605 101.001 100.119 103.467C101.377 105.934 103.516 108.073 106.535 109.886V110.943H58.9765V109.886C62.298 108.778 64.7892 106.991 66.45 104.524C68.1108 102.058 67.985 98.7605 66.0725 94.6327L58.0706 76.3592L23.0431 76.2082L16.249 92.6694C15.4438 94.683 15.0915 96.5708 15.1922 98.3327C15.2928 100.095 15.6954 101.731 16.4 103.241C17.1046 104.751 18.0105 106.06 19.1176 107.167C20.2248 108.275 21.3823 109.181 22.5902 109.886ZM24.251 73.4898H56.8627L40.1039 34.9796L24.251 73.4898ZM146.545 110.943V110.037C145.639 109.634 144.834 108.98 144.129 108.073C143.425 107.167 142.871 106.11 142.469 104.902C142.066 103.694 141.764 102.41 141.563 101.051C141.361 99.6918 141.261 98.3578 141.261 97.049V42.8327C144.381 39.7116 148.206 38.151 152.735 38.151C155.654 38.151 158.221 39.4599 160.435 42.0776C162.65 44.6952 163.757 49.2762 163.757 55.8204V97.049C163.757 99.9687 163.354 102.662 162.549 105.129C161.744 107.595 160.385 109.231 158.473 110.037V110.943H196.067V110.037C195.161 109.634 194.356 108.98 193.651 108.073C192.946 107.167 192.393 106.11 191.99 104.902C191.588 103.694 191.286 102.41 191.084 101.051C190.883 99.6918 190.782 98.3578 190.782 97.049V61.1061C190.782 57.2803 190.48 53.4293 189.876 49.5531C189.273 45.6769 188.09 42.1531 186.328 38.9816C184.567 35.8102 182.151 33.2177 179.081 31.2041C176.011 29.1905 172.01 28.1837 167.078 28.1837C161.542 28.1837 156.459 29.417 151.829 31.8837C147.199 34.3503 143.375 37.698 140.355 41.9265V29.5429H139.449C137.134 30.2476 134.441 31.0531 131.372 31.9592C128.302 32.8653 125.207 33.7966 122.086 34.7531C118.966 35.7095 116.047 36.6156 113.329 37.4714C110.612 38.3272 108.397 39.0068 106.686 39.5102V40.2653C109.303 42.3796 111.216 44.5442 112.424 46.7592C113.631 48.9742 114.235 51.8435 114.235 55.3673V97.049C114.235 99.9687 113.833 102.662 113.027 105.129C112.222 107.595 110.863 109.231 108.951 110.037V110.943H146.545ZM243.776 110.037V110.943H206.182V110.037C208.095 109.231 209.454 107.595 210.259 105.129C211.064 102.662 211.467 99.9687 211.467 97.049V55.3673C211.467 51.8435 210.863 48.9742 209.655 46.7592C208.447 44.5442 206.535 42.3796 203.918 40.2653V39.5102C205.629 39.0068 207.843 38.3272 210.561 37.4714C213.278 36.6156 216.197 35.7095 219.318 34.7531C222.438 33.7966 225.533 32.8653 228.603 31.9592C231.673 31.0531 234.365 30.2476 236.68 29.5429H237.586V41.9265C240.606 37.698 244.431 34.3503 249.061 31.8837C253.691 29.417 258.774 28.1837 264.31 28.1837C269.242 28.1837 273.243 29.1905 276.313 31.2041C279.383 33.2177 281.798 35.8102 283.56 38.9816C285.321 42.1531 286.504 45.6769 287.108 49.5531C287.712 53.4293 288.014 57.2803 288.014 61.1061V97.049C288.014 98.3578 288.114 99.6918 288.316 101.051C288.517 102.41 288.819 103.694 289.222 104.902C289.624 106.11 290.178 107.167 290.882 108.073C291.587 108.98 292.392 109.634 293.298 110.037V110.943H255.704V110.037C257.616 109.231 258.975 107.595 259.78 105.129C260.586 102.662 260.988 99.9687 260.988 97.049V55.8204C260.988 49.2762 259.881 44.6952 257.667 42.0776C255.452 39.4599 252.886 38.151 249.967 38.151C245.437 38.151 241.612 39.7116 238.492 42.8327V97.049C238.492 98.3578 238.593 99.6918 238.794 101.051C238.995 102.41 239.297 103.694 239.7 104.902C240.103 106.11 240.656 107.167 241.361 108.073C242.065 108.98 242.871 109.634 243.776 110.037ZM365.618 112C370.55 112 374.551 110.943 377.621 108.829C380.691 106.714 383.484 103.442 386 99.0123L385.396 98.2571H385.245C384.138 100.17 382.955 101.454 381.697 102.108C380.439 102.763 379.256 103.09 378.149 103.09C376.539 103.09 375.104 102.335 373.846 100.824C372.588 99.3143 371.959 96.2939 371.959 91.7633V62.9184C371.959 57.8844 371.305 53.2531 369.996 49.0245C368.688 44.7959 366.649 41.1211 363.881 38C361.113 34.8789 357.641 32.4626 353.464 30.751C349.287 29.0395 344.329 28.1837 338.592 28.1837C333.66 28.1837 329.156 29.0646 325.079 30.8265C321.003 32.5884 317.505 34.9293 314.586 37.849C311.667 40.7687 309.403 44.0912 307.792 47.8163C306.182 51.5415 305.376 55.4177 305.376 59.4449H306.433C306.433 56.7265 306.987 54.0837 308.094 51.5163C309.201 48.949 310.736 46.6837 312.699 44.7204C314.662 42.7571 316.977 41.1966 319.644 40.0388C322.311 38.881 325.205 38.302 328.325 38.302C331.748 38.302 334.566 38.8558 336.78 39.9633C338.995 41.0707 340.731 42.5306 341.989 44.3429C343.247 46.1551 344.128 48.2442 344.631 50.6102C345.135 52.9762 345.386 55.468 345.386 58.0857V63.6735L324.853 71.2245C315.492 74.6476 309 78.3224 305.376 82.249C301.753 86.1755 299.941 90.5551 299.941 95.3878C299.941 100.422 301.703 104.449 305.225 107.469C308.748 110.49 313.378 112 319.116 112C324.551 112 329.483 110.842 333.912 108.527C338.341 106.211 342.316 102.939 345.839 98.7102C346.745 101.127 347.953 103.165 349.463 104.827C350.973 106.488 352.608 107.847 354.37 108.904C356.131 109.961 357.968 110.742 359.88 111.245C361.793 111.748 363.705 112 365.618 112ZM328.325 101.957C329.634 102.712 331.244 103.09 333.157 103.09C335.472 103.09 337.661 102.536 339.725 101.429C341.788 100.321 343.675 99.0122 345.386 97.502V65.1837L339.649 67.902C336.327 69.5129 333.585 71.2245 331.421 73.0367C329.257 74.849 327.52 76.7116 326.212 78.6245C324.903 80.5374 323.997 82.4503 323.494 84.3633C322.991 86.2762 322.739 88.1891 322.739 90.102C322.739 91.6122 322.941 93.1476 323.343 94.7082C323.746 96.2687 324.35 97.6782 325.155 98.9367C325.96 100.195 327.017 101.202 328.325 101.957Z" fill="#0D5079"/>
<path fill-rule="evenodd" clip-rule="evenodd" d="M444.639 237C450.375 237 455.332 235.673 459.508 233.018C463.684 230.364 467.131 226.783 469.848 222.275L470.904 235.948H502V235.047C501.094 234.646 500.289 233.995 499.585 233.093C498.88 232.192 498.327 231.14 497.924 229.938C497.522 228.736 497.22 227.459 497.019 226.107C496.817 224.754 496.717 223.427 496.717 222.125V118H495.962C493.647 118.701 490.905 119.528 487.735 120.479C484.565 121.431 481.345 122.382 478.075 123.334C474.804 124.286 471.735 125.162 468.867 125.963C465.999 126.765 463.76 127.416 462.149 127.917V128.818C464.766 130.822 466.678 132.95 467.885 135.204C469.093 137.458 469.697 140.338 469.697 143.843V160.221C467.282 157.917 464.59 156.264 461.621 155.263C458.652 154.261 455.256 153.76 451.432 153.76C446.602 153.76 441.973 154.862 437.545 157.066C433.117 159.269 429.217 162.324 425.846 166.231C422.475 170.138 419.783 174.82 417.77 180.28C415.758 185.739 414.751 191.724 414.751 198.235C414.751 205.146 415.531 211.056 417.091 215.965C418.651 220.873 420.789 224.88 423.506 227.985C426.224 231.09 429.393 233.369 433.016 234.821C436.639 236.274 440.513 237 444.639 237ZM57.1531 237C60.7758 237 64.4489 236.674 68.1723 236.023C71.8957 235.372 75.4934 234.496 78.9652 233.394C82.437 232.292 85.7327 230.99 88.8524 229.487C91.972 227.985 94.7897 226.382 97.3055 224.679V182.759H63.0401V183.811C66.8641 184.512 69.4302 185.964 70.7385 188.168C72.0467 190.372 72.7008 193.176 72.7008 196.582V228.586C70.0844 230.689 67.5434 232.242 65.0779 233.244C62.6124 234.245 59.9205 234.746 57.0021 234.746C53.2787 234.746 49.8572 233.845 46.7376 232.042C43.618 230.239 40.926 227.259 38.6618 223.102C36.3976 218.945 34.6616 213.485 33.454 206.724C32.2465 199.963 31.6427 191.674 31.6427 181.857C31.6427 174.445 32.5232 167.884 34.2843 162.174C36.0453 156.465 38.4354 151.682 41.4543 147.825C44.4733 143.969 48.0458 141.039 52.1717 139.035C56.2977 137.032 60.7758 136.03 65.6062 136.03C69.3296 136.03 72.9021 136.656 76.3236 137.908C79.7451 139.161 82.7892 140.888 85.456 143.092C88.1228 145.296 90.2361 147.9 91.7959 150.905C93.3557 153.91 94.1356 157.216 94.1356 160.822H95.4941C95.4941 156.615 94.6891 152.408 93.0789 148.201C91.4688 143.994 89.0285 140.237 85.7579 136.932C82.4873 133.626 78.4117 130.922 73.531 128.818C68.6503 126.715 62.8891 125.663 56.2474 125.663C47.3917 125.663 39.5172 127.115 32.6238 130.02C25.7305 132.925 19.9441 136.882 15.2647 141.89C10.5853 146.899 7.03796 152.834 4.62277 159.695C2.20759 166.557 0.999996 173.944 0.999996 181.857C0.999996 188.769 2.13211 195.505 4.39635 202.066C6.66059 208.627 10.0821 214.512 14.6609 219.721C19.2397 224.93 25.0512 229.112 32.0955 232.267C39.1398 235.422 47.4923 237 57.1531 237ZM151.043 237C156.276 237 160.704 236.399 164.327 235.197C167.95 233.995 171.069 232.392 173.686 230.389C176.302 228.386 178.516 226.057 180.328 223.402C182.139 220.748 183.85 217.968 185.46 215.063L185.007 214.462C183.196 216.566 181.334 218.269 179.422 219.571C177.51 220.873 175.598 221.85 173.686 222.501C171.774 223.152 169.937 223.577 168.176 223.778C166.415 223.978 164.78 224.078 163.27 224.078C158.943 224.078 155.194 223.152 152.025 221.299C148.855 219.445 146.188 216.941 144.024 213.786C141.861 210.631 140.251 206.949 139.194 202.742C138.137 198.535 137.559 194.128 137.458 189.52H186.969V187.116C186.969 182.709 186.29 178.502 184.931 174.495C183.573 170.488 181.409 166.932 178.441 163.827C175.472 160.722 171.673 158.243 167.044 156.39C162.415 154.536 156.779 153.61 150.138 153.61C143.798 153.61 138.087 154.712 133.005 156.915C127.923 159.119 123.596 162.099 120.023 165.855C116.451 169.612 113.683 174.044 111.721 179.153C109.759 184.261 108.778 189.67 108.778 195.38C108.778 201.791 109.784 207.551 111.797 212.659C113.809 217.768 116.677 222.125 120.401 225.731C124.124 229.337 128.577 232.117 133.76 234.07C138.942 236.023 144.704 237 151.043 237ZM137.458 187.717L162.817 187.867V187.717C162.817 176.498 161.912 168.335 160.1 163.226C158.289 158.117 155.169 155.563 150.741 155.563C145.81 155.563 142.389 158.243 140.477 163.602C138.565 168.961 137.559 176.999 137.458 187.717ZM234.216 235.948V235.047C233.311 234.646 232.506 233.995 231.801 233.093C231.097 232.192 230.543 231.14 230.141 229.938C229.738 228.736 229.436 227.459 229.235 226.107C229.034 224.754 228.933 223.427 228.933 222.125V169.837C229.738 169.136 230.744 168.385 231.952 167.583C233.16 166.782 234.719 166.381 236.632 166.381C239.55 166.381 242.418 166.982 245.236 168.184C248.053 169.386 251.223 171.59 254.745 174.795H255.047L261.689 157.216C260.582 156.314 259.148 155.513 257.387 154.812C255.626 154.111 253.437 153.71 250.821 153.61C246.695 153.61 242.594 154.987 238.518 157.742C234.443 160.496 230.946 164.077 228.027 168.485V154.962H227.122C224.807 155.663 222.115 156.465 219.046 157.366C215.977 158.268 212.882 159.194 209.763 160.146C206.643 161.097 203.725 161.999 201.008 162.85C198.29 163.702 196.077 164.378 194.366 164.879V165.63C196.982 167.734 198.894 169.912 200.102 172.166C201.309 174.42 201.913 177.199 201.913 180.505V222.125C201.913 225.03 201.511 227.709 200.706 230.164C199.901 232.618 198.542 234.245 196.63 235.047V235.948H234.216ZM337.692 233.845C334.623 235.948 330.622 237 325.691 237C323.779 237 321.867 236.75 319.955 236.249C318.043 235.748 316.207 234.972 314.446 233.92C312.685 232.868 311.049 231.516 309.54 229.863C308.03 228.21 306.823 226.182 305.917 223.778C302.395 227.985 298.42 231.24 293.992 233.544C289.564 235.848 284.633 237 279.199 237C273.463 237 268.834 235.497 265.312 232.492C261.79 229.487 260.029 225.481 260.029 220.472C260.029 215.664 261.84 211.307 265.463 207.4C269.086 203.494 275.576 199.838 284.935 196.432L305.464 188.919V183.36C305.464 180.755 305.213 178.276 304.71 175.922C304.206 173.568 303.326 171.49 302.068 169.687C300.81 167.884 299.074 166.431 296.86 165.33C294.646 164.228 291.829 163.677 288.407 163.677C285.287 163.677 282.394 164.253 279.727 165.405C277.061 166.557 274.746 168.109 272.784 170.062C270.821 172.016 269.287 174.27 268.18 176.824C267.073 179.378 266.519 182.008 266.519 184.712H265.463C265.463 180.705 266.268 176.849 267.878 173.143C269.488 169.436 271.752 166.131 274.671 163.226C277.589 160.321 281.086 157.992 285.162 156.239C289.237 154.486 293.741 153.61 298.672 153.61C304.408 153.61 309.364 154.461 313.54 156.164C317.716 157.867 321.188 160.271 323.956 163.376C326.723 166.481 328.761 170.138 330.069 174.345C331.377 178.552 332.031 183.16 332.031 188.168V216.866C332.031 221.374 332.66 224.379 333.918 225.881C335.176 227.384 336.61 228.135 338.22 228.135C339.327 228.135 340.51 227.81 341.768 227.158C343.025 226.507 344.208 225.23 345.315 223.327H345.466L346.07 224.078C343.554 228.486 340.761 231.741 337.692 233.845ZM293.237 228.135C291.325 228.135 289.715 227.759 288.407 227.008C287.099 226.257 286.042 225.255 285.237 224.003C284.432 222.751 283.828 221.349 283.426 219.796C283.023 218.243 282.822 216.716 282.822 215.213C282.822 213.31 283.074 211.407 283.577 209.504C284.08 207.601 284.986 205.697 286.294 203.794C287.602 201.891 289.338 200.038 291.501 198.235C293.665 196.432 296.407 194.729 299.728 193.126L305.464 190.422V222.576C303.754 224.078 301.867 225.38 299.804 226.482C297.741 227.584 295.552 228.135 293.237 228.135ZM386.373 235.047V235.948H348.787V235.047C350.699 234.245 352.057 232.618 352.862 230.164C353.667 227.709 354.07 225.03 354.07 222.125V180.505C354.07 177.199 353.466 174.42 352.259 172.166C351.051 169.912 349.139 167.734 346.522 165.63V164.879C348.233 164.378 350.447 163.702 353.164 162.85C355.881 161.999 358.8 161.097 361.919 160.146C365.039 159.194 368.133 158.268 371.203 157.366C374.272 156.465 376.964 155.663 379.278 154.962H380.184V168.485C383.102 164.077 386.599 160.496 390.675 157.742C394.751 154.987 398.851 153.61 402.977 153.61C405.594 153.71 407.783 154.111 409.544 154.812C411.305 155.513 412.739 156.314 413.846 157.216L407.204 174.795H406.902C403.38 171.59 400.21 169.386 397.392 168.184C394.575 166.982 391.707 166.381 388.788 166.381C386.876 166.381 385.316 166.782 384.109 167.583C382.901 168.385 381.895 169.136 381.09 169.837V222.125C381.09 223.427 381.19 224.754 381.392 226.107C381.593 227.459 381.895 228.736 382.297 229.938C382.7 231.14 383.253 232.192 383.958 233.093C384.662 233.995 385.467 234.646 386.373 235.047ZM447.055 219.721C449.47 224.729 452.891 227.234 457.319 227.234C459.936 227.234 462.275 226.633 464.338 225.431C466.401 224.229 468.187 222.576 469.697 220.472V162.775C468.489 161.673 467.08 160.847 465.47 160.296C463.86 159.745 462.2 159.47 460.489 159.47C454.552 159.47 450.224 162.475 447.507 168.485C444.79 174.495 443.432 183.41 443.432 195.23C443.432 206.549 444.639 214.713 447.055 219.721Z" fill="#0D5079"/>
<path fill-rule="evenodd" clip-rule="evenodd" d="M422.467 112C425.712 112 428.669 111.56 431.339 110.679C434.01 109.799 436.468 108.528 438.714 106.868L442.907 111.472L462 111.396V110.868C460.952 110.616 459.916 110.176 458.893 109.547C457.869 108.918 456.896 108.214 455.973 107.434C455.049 106.654 454.213 105.862 453.464 105.057C452.716 104.252 452.092 103.597 451.593 103.094L446.801 97.7358C447.849 96.0252 448.81 94.2013 449.683 92.2642C450.557 90.327 451.368 88.2264 452.117 85.9623C452.566 84.5535 453.265 83.4214 454.213 82.566C455.162 81.7107 456.335 81.2075 457.732 81.0566V80.5283L442.608 80.6038V81.1321C443.357 81.1824 444.105 81.3333 444.854 81.5849C445.603 81.8365 446.277 82.1887 446.876 82.6415C447.475 83.0943 447.949 83.6478 448.298 84.3019C448.648 84.956 448.822 85.7107 448.822 86.566C448.822 88.2264 448.548 89.9119 447.999 91.6226C447.45 93.3333 446.676 94.9937 445.678 96.6038L432.65 82.1887C432.051 81.4843 431.489 80.8428 430.965 80.2642C430.441 79.6855 429.929 79.1195 429.43 78.566C434.422 77.5597 438.303 76.0126 441.073 73.9245C443.843 71.8365 445.228 69.1824 445.228 65.9623C445.228 64.6038 444.842 63.3208 444.068 62.1132C443.294 60.9057 442.196 59.8491 440.773 58.9434C439.351 58.0377 437.604 57.3208 435.532 56.7925C433.461 56.2642 431.127 56 428.532 56C425.687 56 423.166 56.3648 420.97 57.0943C418.773 57.8239 416.926 58.8428 415.429 60.1509C413.931 61.4591 412.783 63.0063 411.985 64.7925C411.186 66.5786 410.787 68.5283 410.787 70.6415C410.787 72.7547 411.398 74.8553 412.621 76.9434C413.844 79.0314 415.329 81.1069 417.076 83.1698C412.035 84.478 408.428 86.4151 406.257 88.9811C404.086 91.5472 403 94.4654 403 97.7358C403 100 403.487 102.013 404.46 103.774C405.433 105.535 406.781 107.019 408.503 108.226C410.225 109.434 412.272 110.365 414.643 111.019C417.014 111.673 419.622 112 422.467 112ZM427.977 77.1556C426.802 75.8332 425.797 74.6333 424.965 73.5558C424.132 72.4783 423.458 71.4498 422.944 70.4703C422.43 69.4908 422.05 68.4868 421.805 67.4583C421.56 66.4298 421.438 65.3033 421.438 64.0789C421.438 62.2668 421.989 60.6873 423.091 59.3405C424.193 57.9936 425.846 57.2957 428.051 57.2467C430.01 57.1978 431.652 57.9324 432.974 59.4507C434.297 60.9689 434.958 62.977 434.958 65.4747C434.958 66.6991 434.824 67.9235 434.554 69.148C434.285 70.3724 433.881 71.5111 433.342 72.564C432.803 73.617 432.093 74.5353 431.211 75.3189C430.329 76.1026 429.251 76.7148 427.977 77.1556ZM418.367 106.03C420.417 108.351 423.167 109.511 426.617 109.511C428.367 109.511 430.167 109.141 432.017 108.4C433.867 107.659 435.667 106.647 437.417 105.363L425.867 92.8444C424.667 91.5605 423.367 90.2272 421.967 88.8444C420.567 87.4617 419.217 86.0543 417.917 84.6222C416.867 85.8074 416.167 87.2519 415.817 88.9556C415.467 90.6593 415.292 92.7704 415.292 95.2889C415.292 100.128 416.317 103.709 418.367 106.03Z" fill="#0D5079"/>
</svg>
